<svg xmlns="http://www.w3.org/2000/svg" width="730.062" height="623.696" viewBox="0 0 730.062 623.696"><defs><style>.a{fill:#5ab47c;}.b{fill:#3f3d56;}.c{fill:#82b267;}.d{fill:#2f2e41;}.e{opacity:0.1;}.f{fill:#58a975;}.g{fill:#5aa978;}</style></defs><g transform="translate(0 0)"><path class="a" d="M406.7,441.831c0,110.775-65.854,149.454-147.09,149.454s-147.09-38.679-147.09-149.454,147.09-251.7,147.09-251.7S406.7,331.055,406.7,441.831Z" transform="translate(-112.517 -76.219)"/><path class="b" d="M151.3,511.318l1.506-92.709L215.5,303.915l-62.457,100.15.677-41.685L196.931,279.4,153.9,351.348h0l1.219-74.973,46.267-66.063-46.077,54.274.761-137.476L151.29,309.1l.393-7.507-47.041-72,46.287,86.417-4.383,83.733-.131-2.223-54.23-75.774,54.066,83.625L145.7,415.84l-.1.158.045.859L134.529,629.294h14.858l1.782-109.728,53.933-83.42Z" transform="translate(-9.572 -13.198)"/><path class="c" d="M885.524,370.516c0,135.331-80.453,182.585-179.7,182.585s-179.7-47.253-179.7-182.585,179.7-307.5,179.7-307.5S885.524,235.184,885.524,370.516Z" transform="translate(-155.463 -63.021)"/><path class="b" d="M598.459,469.378l1.84-113.26L676.89,216l-76.3,122.352.828-50.927L654.2,186.049l-52.568,87.9h0l1.488-91.594,56.525-80.707-56.291,66.3L604.286,0l-5.843,222.336.48-9.172L541.455,125.2,598,230.771l-5.356,102.294-.159-2.715L526.236,237.78l66.051,102.162-.67,12.793-.119.193.055,1.05-13.586,259.53h18.151L598.3,479.455l65.888-101.912Z" transform="translate(-54.64 0)"/><ellipse class="b" cx="276.02" cy="9.858" rx="276.02" ry="9.858" transform="translate(82.418 603.98)"/><rect class="d" width="32.262" height="302.905" transform="translate(342.307 310.933)"/><path class="b" d="M542.02,417.52H343.967V361.958H542.02l57.355,27.781Z" transform="translate(-35.715 -37.583)"/><path class="e" d="M542.02,416H343.967v4.481H542.02L599.375,392.7l-4.625-2.24Z" transform="translate(-35.715 -40.542)"/><path class="b" d="M229.322,499.52H427.375V443.958H229.322l-57.355,27.781Z" transform="translate(-17.856 -46.097)"/><path class="e" d="M176.592,472.458l-4.625,2.24,57.355,27.781H427.375V498H229.322Z" transform="translate(-17.856 -49.056)"/><rect class="f" width="34.054" height="34.054" transform="translate(419.377 335.13)"/><circle class="f" cx="17.027" cy="17.027" r="17.027" transform="translate(265.236 408.615)"/><circle class="d" cx="9.858" cy="9.858" r="9.858" transform="translate(348.58 340.507)"/><circle class="d" cx="9.858" cy="9.858" r="9.858" transform="translate(348.58 413.992)"/><path class="g" d="M432.288,705.014c0,20.136-11.97,27.166-26.736,27.166q-.513,0-1.025-.011c-.684-.015-1.362-.047-2.031-.093-13.327-.943-23.68-8.335-23.68-27.062,0-19.38,24.765-43.834,26.625-45.644l0,0,.108-.1S432.288,684.878,432.288,705.014Z" transform="translate(-140.167 -124.93)"/><path class="b" d="M406.318,729.1l9.779-13.664-9.8,15.164-.026,1.569c-.684-.015-1.362-.047-2.031-.093l1.054-20.145-.008-.156.018-.029.1-1.9-9.828-15.2,9.859,13.774.023.4.8-15.221-8.414-15.708,8.516,13.037.829-31.556,0-.108v.1l-.138,24.884,8.376-9.865-8.41,12.009-.222,13.628,7.821-13.079-7.853,15.084-.124,7.576,11.354-18.2-11.4,20.847Z" transform="translate(-141.906 -124.93)"/></g></svg>