<?xml version="1.0" encoding="utf-8"?>
<!-- Generator: Adobe Illustrator 24.1.1, SVG Export Plug-In . SVG Version: 6.00 Build 0)  -->
<svg version="1.1" id="Layer_1" xmlns="http://www.w3.org/2000/svg" xmlns:xlink="http://www.w3.org/1999/xlink" x="0px" y="0px"
	 viewBox="0 0 1476.4 954.4" style="enable-background:new 0 0 1476.4 954.4;" xml:space="preserve">
<style type="text/css">
	.st0{opacity:0.79;}
	.st1{opacity:0.1;fill:#329555;enable-background:new    ;}
	.st2{fill:#329555;}
	.st3{opacity:0.3;enable-background:new    ;}
	.st4{opacity:0.1;enable-background:new    ;}
	.st5{opacity:0.4;enable-background:new    ;}
	.st6{opacity:0.5;fill:#329555;enable-background:new    ;}
	.st7{fill:none;}
	.st8{opacity:0.3;fill:#329555;enable-background:new    ;}
	.st9{fill:#535461;}
	.st10{fill:#096D2C;}
	.st11{fill:#9D9CB5;}
	.st12{fill:none;stroke:#535461;stroke-width:2;stroke-miterlimit:10;}
	.st13{fill:#3F3D56;}
	.st14{fill:#D4DFEC;}
	.st15{fill:#E6E6E6;}
	.st16{fill:#CCCCCC;}
</style>
<g transform="translate(-361.997 -118.518)">
	<g transform="translate(497.5 222.954)" class="st0">
		<path class="st1" d="M156.7-24.4C188.8-53,239.2-58.8,285-56.5c144,7.2,274,76.7,386.4,155.3c40.7,28.5,80.8,59.1,107.2,98.3
			c53.8,79.8,37.8,190.4-37,256.1c-25.4,22.4-56.3,39.5-88,54.7c-56.3,27-117.1,48.7-181,54.9c-45.6,4.4-91.7,0.8-137-5.3
			C209,540.3,84.8,502.4-19.4,437.4c-45.7-28.5-88.7-63.9-107.6-110s-6.6-104.4,40-131.7c19.3-11.3,42.4-16.4,64.9-21.2
			c33.2-7,67-14,97-28.3c31-14.8,67.7-43.4,61.5-76.1C129.9,35,124.7,4.2,156.7-24.4z"/>
		<ellipse class="st2" cx="697.5" cy="777" rx="643.4" ry="73"/>
		<rect x="524.6" y="666.6" class="st2" width="31.8" height="91.2"/>
		<rect x="524.6" y="666.6" class="st3" width="31.8" height="91.2"/>
		<path class="st2" d="M432.5,747.4l-0.5,10.4l23.4,2.2l-72.9,17.6c0,0-12.8-1.1-10.6,17.2h17.9l0.4-3.7l145.7-10.3L649,809h1.8v3.3
			h20.1c0,0,1.8-13.9-5.5-18.3s-45.8-19.4-45.8-19.4l61.5-5.9l12.1,0.4c0,0-0.4-15.4-9.5-16.5s-138.5-13.5-138.5-13.5h-20.8
			l-6.2,1.9l-80.7,1.3C434.8,742.5,432.6,744.7,432.5,747.4z"/>
		<path class="st4" d="M556.4,666.6v10.6c-11.5,1.8-18.7,2.6-18.7,2.6c-4.4,0.8-8.8,1.2-13.2,1.2v-14.4H556.4z"/>
		<path class="st2" d="M326.9,541.4c0,0-12.8,21.6,24.2,22.3c0,0,27.5,2.6,48,43.6s93.4,78.7,138.8,70.3c0,0,152-16.4,170.2-75.8
			l12.5-32.2c0,0,52-4,57.5-3.3s1.8-15,1.8-15l-13.5-9.9l-32.2,5.5l-36.6,33.7l-114.3,53.8L473,618.7c0,0-87.1-56-87.9-58.6
			s-35.1-26-35.1-26L326.9,541.4z"/>
		<path class="st3" d="M432.5,747.4l-0.5,10.4l23.4,2.2l-72.9,17.6c0,0-12.8-1.1-10.6,17.2h17.9l0.4-3.7l145.7-10.3L649,809h1.8v3.3
			h20.1c0,0,1.8-13.9-5.5-18.3s-45.8-19.4-45.8-19.4l61.5-5.9l12.1,0.4c0,0-0.4-15.4-9.5-16.5s-138.5-13.5-138.5-13.5h-20.8
			l-6.2,1.9l-80.7,1.3C434.8,742.5,432.6,744.7,432.5,747.4z"/>
		<path class="st5" d="M326.9,541.4c0,0-12.8,21.6,24.2,22.3c0,0,27.5,2.6,48,43.6s93.4,78.7,138.8,70.3c0,0,152-16.4,170.2-75.8
			l12.5-32.2c0,0,52-4,57.5-3.3s1.8-15,1.8-15l-13.5-9.9l-32.2,5.5l-36.6,33.7l-114.3,53.8L473,618.7c0,0-87.1-56-87.9-58.6
			s-35.1-26-35.1-26L326.9,541.4z"/>
		<path class="st2" d="M745,535.8l-31.3,35c-74.8,86.6-215.8,54.5-265,47.6s-74.4-82-74.4-82c1.9,0.2,3.8,0.1,5.6-0.2
			c8.3-1.4,23.8-8.3,32.9-38.8c12.8-43-42.3-136.5-55.7-146.8s-10.4-28.1-9.3-66s31.9-23.5,31.9-23.5l49.9,29.8
			c122.4,17.2,187.3,1.7,187.3,1.7l56.3-27c24.9-6.3,29-5.7,43.5,28.1s-10.4,63.1-10.4,63.1c-84.1,62.5-73.1,148-59.7,179.5
			c9,21.3,50.6,13.6,76.8,6.4C735.9,539.2,745,535.8,745,535.8z"/>
		<path class="st4" d="M745,535.8l-31.3,35c-74.8,86.6-215.8,54.5-265,47.6s-74.4-82-74.4-82c1.9,0.2,3.8,0.1,5.6-0.2
			c8.3-1.4,23.8-8.3,32.9-38.8c12.8-43-42.3-136.5-55.7-146.8s-10.4-28.1-9.3-66s31.9-23.5,31.9-23.5l49.9,29.8
			c122.4,17.2,187.3,1.7,187.3,1.7l56.3-27c24.9-6.3,29-5.7,43.5,28.1s-10.4,63.1-10.4,63.1c-84.1,62.5-73.1,148-59.7,179.5
			c9,21.3,50.6,13.6,76.8,6.4C735.9,539.2,745,535.8,745,535.8z"/>
		<path class="st2" d="M734,533.5L704.4,567c-70.8,82.9-204.3,52.2-251,45.6S382.9,534,382.9,534c1.8,0.2,3.6,0.1,5.3-0.2
			c7.9-1.4,22.6-7.9,31.1-37.1c12.1-41.2-40.1-130.7-52.7-140.6s-9.9-26.9-8.8-63.1s30.2-22.5,30.2-22.5l47.2,28.5
			c115.9,16.5,177.4,1.6,177.4,1.6l53.3-25.8c23.6-6,27.5-5.5,41.2,26.9s-9.9,60.4-9.9,60.4c-79.6,59.9-69.2,141.8-56.5,172
			c8.5,20.3,47.9,13,72.7,6.1C725.4,536.8,734,533.5,734,533.5z"/>
		<path class="st4" d="M734,533.5L704.4,567c-70.8,82.9-204.3,52.2-251,45.6S382.9,534,382.9,534c1.8,0.2,3.6,0.1,5.3-0.2
			c6.5,5.4,12.4,11.3,17.8,17.8c51.6,61.2,130,57.1,130,57.1s113.5,13.5,155.2-50.2c6.9-6.7,14.3-12.9,22.2-18.4
			C725.4,536.8,734,533.5,734,533.5z"/>
		<path class="st4" d="M783.3,534.4c0,0-13.2-1.1-14.6,8l-0.9,0.1c0-0.4-0.1-0.8-0.2-1.2l-1.5-9.5l12.4,1.1L783.3,534.4z"/>
		<path class="st4" d="M706.6,605.5c-22,24.3-63.9,52.3-139.6,49.8c0,0-136.2,17.2-186.4-86.4c0,0-19.4-35.6-55.4-15.9l-1,0.5
			l-2.2-15.4c0,0,32.2-43.2,83.8,17.9s130,57.1,130,57.1s113.5,13.5,155.3-50.2c0,0,59-59.7,86.8-23.1l1.5,11.1l0.3,2.4
			c0,0-28.9-9.5-49.4,15.4L706.6,605.5z"/>
		<path class="st2" d="M322.1,535.9c0,0,32.2-43.2,83.9,17.9c5.9,7,12.4,13.4,19.4,19.2c49.8,41,110.6,37.9,110.6,37.9
			s113.5,13.5,155.2-50.2c0,0,59-59.7,86.8-23.1l1.8,13.5c0,0-31.1-10.3-51.6,18.3c0,0-29.7,87.9-161.1,83.5
			c0,0-136.2,17.2-186.4-86.4c0,0-19.8-36.3-56.4-15.4L322.1,535.9z"/>
		<path class="st4" d="M618.9,353.6l-2.6,0.2c-2.8-5.5-3.5-30-2.5-53.1l-2.2-0.1c-0.5,10.9-1.5,43.2,2.6,53.4
			c-25.9,1.9-140.7,9.7-181.7-0.1c14.2-29.9,4-55.1,3.8-55.3l-2,0.9c0.1,0.3,9.8,24.1-3.5,53c-6.7-10.4-41.9-62.8-73.3-56l0.5,2.1
			c29-6.3,63.1,42.9,70.5,54.3l-1.3-0.3l2.9,2.8l1,1.6l0.2-0.4c5.3,5.7,28.8,33.4,27.5,74.6c-0.4,11.6,7.3,22.1,22.3,30.2
			c16.8,9.1,39.6,13.9,60.1,13.9c16.5,0,31.4-3.1,40.6-9.4c7.4-5.1,10.7-12.1,9.6-20.3c-6.1-44.7,28.5-89.5,29.1-90.3
			c47.3-56.6,86.3-52.5,86.7-52.5l0.3-2.2C705.6,300.5,666.9,296.3,618.9,353.6z M589,445.9c1,7.4-1.9,13.5-8.7,18.2
			c-19.7,13.5-69.3,11.2-98.4-4.6c-9.9-5.4-21.5-14.6-21.1-28.3c1.2-39.1-19.5-66.4-26.8-74.7c43.7,9.2,157.8,1.3,181.2-0.5
			c0.3,0.4,0.7,0.7,1.1,0.9C608.7,367.8,583.7,406.9,589,445.9z"/>
		<path class="st4" d="M582.8,760.4l46.2,13.4l-9.2,0.8L582.8,760.4z"/>
		<path class="st4" d="M455.4,760l33.3-8.1l-42.5,7.2L455.4,760z"/>
		<path class="st4" d="M368.8,531.8c0,0,1.3-2.2,3.5,2S368.8,531.8,368.8,531.8z"/>
		<path class="st6" d="M299.9,740.4l17.8,19.7c1.5,1.7,3.7,2.7,6,2.7l0,0c2.3,0,4.5-1,6-2.7l16.9-19
			C331.2,744.7,315.2,744.4,299.9,740.4z"/>
		<line class="st7" x1="330.9" y1="744.5" x2="335.9" y2="730.5"/>
		<path class="st8" d="M332.3,727.8c0.5,3.1,3.4,5.2,6.5,4.7c1.5-0.2,2.8-1.1,3.7-2.3C339.2,729,335.8,728.2,332.3,727.8z"/>
		<rect x="117.5" y="521.3" class="st9" width="5.7" height="127.9"/>
		<path class="st10" d="M158.8,648.8l-0.4,5.8l-0.5,8.1l-0.2,3.4l-0.5,8.1l-0.2,3.4l-0.5,8.1l-5.7,92.5c-0.5,8.3-7.3,14.7-15.6,14.7
			h-29.8c-8.3,0-15.1-6.4-15.6-14.7L84,685.7l-0.5-8.1l-0.2-3.4l-0.5-8.1l-0.2-3.4l-0.5-8.1l-0.4-5.8c-0.3-4.5,3.1-8.3,7.5-8.6
			c0,0,0,0,0.1,0h61.4c4.5,0,8.1,3.6,8.1,8c0,0,0,0,0,0.1C159,648.5,159,648.7,158.8,648.8z"/>
		<path class="st11" d="M158.5,654.5l-0.5,8.2H82.6l-0.5-8.2H158.5z"/>
		<path class="st11" d="M157.8,666l-0.5,8.2h-74l-0.5-8.2H157.8z"/>
		<path class="st11" d="M157.1,677.6l-0.5,8.1H84.1l-0.6-8.1H157.1z"/>
		<path class="st2" d="M73.4,569.2c33.1,23.9,46.9,61.4,46.9,61.4s-39.9-1.4-72.9-25.3S0.5,543.9,0.5,543.9S40.4,545.3,73.4,569.2z"
			/>
		<path class="st12" d="M0.5,543.9c0,0,41.4,23,54.7,42s65.2,44.7,65.2,44.7"/>
		<path class="st2" d="M94.8,521c18,13,25.5,33.4,25.5,33.4s-21.7-0.7-39.7-13.8s-25.5-33.4-25.5-33.4S76.8,508,94.8,521z"/>
		<path class="st12" d="M55.1,507.2c0,0,22.5,12.5,29.8,22.8s35.5,24.3,35.5,24.3"/>
		<path class="st2" d="M146.5,553.3c-20.7,22.7-25.1,52.4-25.1,52.4s29.2-7.2,49.8-29.9s25.1-52.4,25.1-52.4
			S167.1,530.6,146.5,553.3z"/>
		<path class="st12" d="M196.3,523.5c0,0-27,23.3-33.8,39.4s-41.1,43-41.1,43"/>
		<path class="st4" d="M866,642.1c0,0,5.8,7.5-2.7,19s-15.4,21-12.6,28.2c0,0,12.7-21.2,23.1-21.5S877.4,654.8,866,642.1z"/>
		<path class="st4" d="M866,642.1c0.5,0.7,0.9,1.5,1.2,2.4c10.1,11.9,15.5,23,5.8,23.3c-9.1,0.3-19.9,16.5-22.5,20.5l0.3,0.9
			c0,0,12.7-21.2,23.1-21.5S877.4,654.8,866,642.1z"/>
		<path class="st13" d="M876.7,651.7c0,2.7-0.3,4.8-0.7,4.8s-0.7-2.2-0.7-4.8s0.4-1.4,0.7-1.4S876.7,649.1,876.7,651.7z"/>
		<path class="st13" d="M880.4,654.9c-2.3,1.3-4.4,2-4.5,1.7s1.6-1.6,3.9-2.9s1.4-0.3,1.6,0S882.8,653.6,880.4,654.9z"/>
		<path class="st13" d="M835.5,642.1c0,0-5.8,7.5,2.7,19s15.4,21,12.6,28.2c0,0-12.7-21.2-23.1-21.5S824.1,654.8,835.5,642.1z"/>
		<path class="st14" d="M866,642.1c0,0,5.8,7.5-2.7,19s-15.4,21-12.6,28.2c0,0,12.7-21.2,23.1-21.5S877.4,654.8,866,642.1z"/>
		<path class="st4" d="M835.5,642.1c0,0-5.8,7.5,2.7,19s15.4,21,12.6,28.2c0,0-12.7-21.2-23.1-21.5S824.1,654.8,835.5,642.1z"/>
		<path class="st4" d="M835.5,642.1c-0.5,0.7-0.9,1.5-1.2,2.4c-10.1,11.9-15.5,23-5.8,23.3c9.1,0.3,19.9,16.5,22.5,20.5l-0.3,0.9
			c0,0-12.7-21.2-23.1-21.5S824.1,654.8,835.5,642.1z"/>
		<path class="st14" d="M824.7,651.7c0,2.7,0.3,4.8,0.7,4.8s0.7-2.2,0.7-4.8s-0.4-1.4-0.7-1.4S824.7,649.1,824.7,651.7z"/>
		<path class="st14" d="M821,654.9c2.3,1.3,4.4,2,4.5,1.7s-1.6-1.6-3.9-2.9s-1.4-0.3-1.6,0S818.7,653.6,821,654.9z"/>
		<path class="st10" d="M881.8,679l-0.3,2.4l-0.4,3.3l-0.2,1.4l-0.4,3.3l-0.2,1.4l-0.4,3.3l-4.6,37.9c-0.4,3.4-5.9,6-12.6,6h-24.1
			c-6.7,0-12.2-2.6-12.6-6l-4.6-37.9l-0.4-3.3l-0.2-1.4l-0.4-3.3l-0.2-1.4l-0.4-3.3l-0.2-2.4c-0.2-1.9,2.8-3.5,6.5-3.5h49.1
			C879.1,675.5,882.1,677.1,881.8,679z"/>
		<path class="st11" d="M881.5,681.4l-0.4,3.3h-60.8l-0.4-3.3H881.5z"/>
		<path class="st11" d="M881,686.1l-0.4,3.4h-59.7l-0.4-3.4H881z"/>
		<path class="st11" d="M880.4,690.8l-0.4,3.4h-58.5l-0.4-3.4H880.4z"/>
	</g>
	<g transform="translate(613.167 118.517)">
		<rect x="701.3" y="330.1" class="st15" width="508.5" height="14.9"/>
		<rect x="743.4" y="205.3" class="st15" width="128.8" height="128.8"/>
		<rect x="769.1" y="231.1" class="st16" width="77.3" height="77.3"/>
		<rect x="1032.2" y="205.3" class="st15" width="32.5" height="128.8"/>
		<rect x="1032.2" y="225.6" class="st16" width="32.5" height="14.9"/>
		<rect x="1032.2" y="290.7" class="st16" width="32.5" height="14.9"/>
		<rect x="982" y="205.3" class="st15" width="32.5" height="128.8"/>
		<rect x="982" y="225.6" class="st16" width="32.5" height="14.9"/>
		<rect x="982" y="290.7" class="st16" width="32.5" height="14.9"/>
		
			<rect x="1090.5" y="205.3" transform="matrix(0.896 -0.444 0.444 0.896 -4.6694 519.4793)" class="st15" width="32.5" height="128.8"/>
		
			<rect x="1074.3" y="229.4" transform="matrix(0.896 -0.444 0.444 0.896 8.2058 508.8472)" class="st16" width="32.5" height="14.9"/>
		
			<rect x="1103.2" y="287.8" transform="matrix(0.896 -0.444 0.444 0.896 -14.6934 527.7369)" class="st16" width="32.5" height="14.9"/>
		<path class="st15" d="M791.5,257l16.4,28.4l16.4,28.4h-65.6l16.4-28.4L791.5,257z"/>
		<path class="st15" d="M820,262.4l16.4,28.4l16.4,28.4h-65.6l16.4-28.4L820,262.4z"/>
		<circle class="st15" cx="831.5" cy="244.6" r="9.5"/>
		<rect x="701.3" y="125.3" class="st15" width="508.5" height="14.9"/>
		<rect x="1039" y="0.5" class="st15" width="128.8" height="128.8"/>
		<rect x="1064.8" y="26.3" class="st16" width="77.3" height="77.3"/>
		<rect x="846.4" y="0.5" class="st15" width="32.5" height="128.8"/>
		<rect x="846.4" y="20.9" class="st16" width="32.5" height="14.9"/>
		<rect x="846.4" y="86" class="st16" width="32.5" height="14.9"/>
		<rect x="896.6" y="0.5" class="st15" width="32.5" height="128.8"/>
		<rect x="896.6" y="20.9" class="st16" width="32.5" height="14.9"/>
		<rect x="896.6" y="86" class="st16" width="32.5" height="14.9"/>
		
			<rect x="740" y="48.7" transform="matrix(0.444 -0.896 0.896 0.444 389.0358 756.8741)" class="st15" width="128.8" height="32.5"/>
		
			<rect x="813.2" y="15.9" transform="matrix(0.444 -0.896 0.896 0.444 427.4694 753.1648)" class="st16" width="14.9" height="32.5"/>
		
			<rect x="784.3" y="74.2" transform="matrix(0.444 -0.896 0.896 0.444 359.1401 759.7207)" class="st16" width="14.9" height="32.5"/>
		<path class="st15" d="M1119.7,52.2l-16.4,28.4l-16.4,28.4h65.6l-16.4-28.4L1119.7,52.2z"/>
		<path class="st15" d="M1091.2,57.7l-16.4,28.4l-16.4,28.4h65.6l-16.4-28.4L1091.2,57.7z"/>
		<circle class="st15" cx="1079.7" cy="39.9" r="9.5"/>
		<rect x="701.3" y="534.8" class="st15" width="508.5" height="14.9"/>
		<rect x="1039" y="410.1" class="st15" width="128.8" height="128.8"/>
		<rect x="1064.8" y="435.8" class="st16" width="77.3" height="77.3"/>
		<rect x="846.4" y="410.1" class="st15" width="32.5" height="128.8"/>
		<rect x="846.4" y="430.4" class="st16" width="32.5" height="14.9"/>
		<rect x="846.4" y="495.5" class="st16" width="32.5" height="14.9"/>
		<rect x="896.6" y="410.1" class="st15" width="32.5" height="128.8"/>
		<rect x="896.6" y="430.4" class="st16" width="32.5" height="14.9"/>
		<rect x="896.6" y="495.5" class="st16" width="32.5" height="14.9"/>
		
			<rect x="740" y="458.2" transform="matrix(0.444 -0.896 0.896 0.444 22.0684 984.5807)" class="st15" width="128.8" height="32.5"/>
		
			<rect x="813.2" y="425.4" transform="matrix(0.444 -0.896 0.896 0.444 60.5029 980.8708)" class="st16" width="14.9" height="32.5"/>
		
			<rect x="784.3" y="483.7" transform="matrix(0.444 -0.896 0.896 0.444 -7.8249 987.427)" class="st16" width="14.9" height="32.5"/>
		<path class="st15" d="M1119.7,461.8l-16.4,28.4l-16.4,28.4h65.6l-16.4-28.4L1119.7,461.8z"/>
		<path class="st15" d="M1091.2,467.2l-16.4,28.4l-16.4,28.4h65.6l-16.4-28.4L1091.2,467.2z"/>
		<circle class="st15" cx="1079.7" cy="449.4" r="9.5"/>
	</g>
</g>
</svg>
