<svg xmlns="http://www.w3.org/2000/svg" width="854.415" height="604.497" viewBox="0 0 854.415 604.497"><defs><style>.a{fill:#3f3d56;}.b,.c{fill:#329555;}.b{opacity:0.3;}.d{opacity:0.1;}.e{fill:#f2f2f2;}.f{fill:#fff;}</style></defs><g transform="matrix(0.974, -0.225, 0.225, 0.974, -318.789, 94.726)"><path class="a" d="M294.123,182.846a20.323,20.323,0,1,1,20.323-20.323h0A20.354,20.354,0,0,1,294.123,182.846Zm0-37.234a16.911,16.911,0,1,0,16.911,16.911A16.9,16.9,0,0,0,294.123,145.612Z" transform="translate(14.261 27.217)"/><path class="a" d="M807.877,447.277H774.5V413.9h33.377Zm-30.855-2.522h28.333V416.422H777.022Z" transform="translate(256.317 158.566)"/><path class="a" d="M267.145,431.422,244.3,406.945,268.777,384.1l22.845,24.477Zm-19.136-24.328,19.285,20.768,20.768-19.285-19.285-20.768Z" transform="translate(0 144.16)"/><circle class="b" cx="235.569" cy="235.569" r="235.569" transform="translate(424.241 149.984)"/><path class="c" d="M510.3,85.9,353.5,276.076l232.157,273.99L740.38,368.2Z" transform="translate(52.791 0)"/><path class="d" d="M510.3,85.9,353.5,276.076l232.157,273.99L740.38,368.2Z" transform="translate(52.791 0)"/><path class="e" d="M357.7,269.06h0A75.352,75.352,0,0,1,370.458,252L514.5,106.03s50.14-8.307,60.672,16.763L391.226,273.361Z" transform="translate(54.821 9.094)"/><path class="c" d="M352.8,267.545,566.118,593.752s20.916,14.686,41.833,6.23l218.51-147.453L594.3,101.4,385.139,264.429Z" transform="translate(52.453 7.493)"/><rect class="a" width="164.81" height="3.412" transform="matrix(0.812, -0.584, 0.584, 0.812, 486.818, 256.006)"/><rect class="a" width="3.412" height="318.345" transform="matrix(0.834, -0.552, 0.552, 0.834, 482.262, 293.787)"/><rect class="a" width="176.529" height="3.412" transform="matrix(0.805, -0.593, 0.593, 0.805, 679.255, 565.486)"/><rect class="a" width="3.412" height="318.493" transform="matrix(0.821, -0.571, 0.571, 0.821, 643.356, 166.225)"/><rect class="a" width="224.592" height="2.077" transform="translate(424.43 264.844) rotate(-42.548)"/><rect class="a" width="230.674" height="2.077" transform="translate(430.804 267.055) rotate(-41.437)"/><rect class="a" width="233.641" height="2.077" transform="translate(434.921 267.02) rotate(-39.815)"/><path class="f" d="M690.9,453.025c8.01-6.379,19.433-13.351,28.927-16.318l-14.983-3.115L753.5,354.08l-2.818-1.78-48.657,79.512L692.384,419.8C693.867,429.587,692.828,442.938,690.9,453.025Z" transform="translate(215.902 128.787)"/><path class="f" d="M255.167,371.077l48.657-79.512,9.642,12.016c-1.632-9.642-.593-22.993,1.335-33.081-8.011,6.379-19.433,13.351-28.927,16.318l14.983,3.115L252.2,369.445Z" transform="translate(3.819 89.242)"/></g></svg>