<svg xmlns="http://www.w3.org/2000/svg" width="823.99" height="657.776" viewBox="0 0 823.99 657.776"><defs><style>.a{fill:#319555;}.b{fill:#096d2c;}.c{fill:#d0cde1;}.d{fill:#3f3d56;}.e{fill:#4d9467;}</style></defs><rect class="a" width="333.543" height="589.128" transform="translate(49.114)"/><ellipse class="b" cx="411.995" cy="9.569" rx="411.995" ry="9.569" transform="translate(0 582.442)"/><path class="b" d="M285.227,0C442.753,0,570.454,2.966,570.454,6.625s-127.7,6.625-285.227,6.625S0,10.284,0,6.625,127.7,0,285.227,0Z" transform="translate(126.768 617.039)"/><ellipse class="b" cx="232.672" cy="5.404" rx="232.672" ry="5.404" transform="translate(179.453 646.968)"/><rect class="c" width="333.543" height="1.974" transform="translate(49.114 112.99)"/><rect class="c" width="333.543" height="1.974" transform="translate(49.114 233.382)"/><rect class="c" width="333.543" height="1.974" transform="translate(49.114 353.773)"/><rect class="c" width="333.543" height="1.974" transform="translate(49.114 474.164)"/><path class="c" d="M386.855,379h0l-5.88-18.287-1.131,1a30.984,30.984,0,0,1-24.609,7.914l-1.5-.155,5.881,18.286h0l4.036,12.551h0l13.581,42.232h0l4.036,12.551h0l4.458,13.863,1.1-.782a42.275,42.275,0,0,1,24.8-7.974l1.348-.006-4.457-13.862h0l-4.036-12.551h0l-13.581-42.233h0Zm-30.33-7.282a32.6,32.6,0,0,0,23.486-7.552l4.965,15.439-23.486,7.552Zm5.569,17.318,23.485-7.552,2.828,8.793-23.485,7.553Zm48.174,69.218a44.045,44.045,0,0,0-23.486,7.552l-3.638-11.314,23.486-7.552Zm-4.243-13.193-23.485,7.552-2.828-8.793,23.485-7.552Zm-3.432-10.673-23.486,7.552-13.581-42.233,23.486-7.553Z" transform="translate(-184.758 -116.404)"/><path class="c" d="M268.855,257h0l-5.88-18.287-1.131,1a30.984,30.984,0,0,1-24.609,7.914l-1.5-.155,5.881,18.286h0l4.036,12.552h0l13.581,42.233h0l4.036,12.552h0l4.458,13.862,1.1-.782a42.275,42.275,0,0,1,24.8-7.974l1.348-.005-4.458-13.862h0l-4.036-12.551h0l-13.581-42.233h0Zm-30.33-7.282a32.588,32.588,0,0,0,23.486-7.552l4.965,15.439-23.486,7.552Zm5.569,17.318,23.485-7.552,2.828,8.793-23.485,7.553Zm48.174,69.218a44.052,44.052,0,0,0-23.486,7.552l-3.638-11.314,23.486-7.552Zm-4.243-13.193-23.485,7.552-2.828-8.793,23.485-7.552Zm-3.432-10.673-23.486,7.552-13.581-42.233,23.486-7.553Z" transform="translate(-183.202 -114.795)"/><path class="d" d="M965.011,230.257a13.526,13.526,0,1,1,13.526-13.526,13.526,13.526,0,0,1-13.526,13.526Zm0-24.8a11.272,11.272,0,1,0,11.272,11.272,11.272,11.272,0,0,0-11.272-11.272Z" transform="translate(-192.64 -114.327)"/><path class="d" d="M989.648,627.885H967.4V605.633h22.252Zm-20.54-1.712h18.828V607.345H969.107Z" transform="translate(-192.85 -119.633)"/><path class="d" d="M626.488,274.293l-15.177-16.272,16.272-15.177,15.177,16.272ZM613.73,258.1l12.842,13.769,13.769-12.842L627.5,245.263Z" transform="translate(-188.154 -114.849)"/><path class="e" d="M497.572,567.882v10.9a10.777,10.777,0,0,1-10.624,10.9H455.894a10.777,10.777,0,0,1-10.624-10.9v-10.9a10.777,10.777,0,0,1,10.624-10.9H465.7v-.839h11.441v.839h9.806a10.777,10.777,0,0,1,10.624,10.9Z" transform="translate(-185.965 -118.98)"/><path class="c" d="M495.6,550.141H483.757V533.365h-5.921V524.7a4.113,4.113,0,0,0,1.391.227c3.178,0,8.121-2.655,12.375-6.089a27.222,27.222,0,0,0,8.309-12.621l.365-1.332-1.372.079a27.148,27.148,0,0,0-14.111,5.427,34.451,34.451,0,0,0-6.957,7.312V505.241c2.6-1.747,3.947-8.052,3.947-14.309a27.142,27.142,0,0,0-4.628-14.388l-.8-1.115-.8,1.115a27.142,27.142,0,0,0-4.628,14.388c0,7.006,1.7,14.082,4.934,14.733v27.7h-5.921v16.776H458.1a12.841,12.841,0,0,0-12.829,12.829V575.8A12.841,12.841,0,0,0,458.1,588.626h37.5A12.841,12.841,0,0,0,508.427,575.8V562.969A12.841,12.841,0,0,0,495.6,550.141Zm-9.572-38.219a25.118,25.118,0,0,1,11.487-4.806,25,25,0,0,1-7.145,10.194c-6.01,4.835-11.3,6.424-12.158,5.349s1.816-5.891,7.816-10.737ZM472.9,490.932a25.066,25.066,0,0,1,3.454-11.96,24.993,24.993,0,0,1,3.454,11.96c0,7.717-2.082,12.829-3.454,12.829S472.9,498.649,472.9,490.932ZM506.453,575.8A10.861,10.861,0,0,1,495.6,586.653H458.1A10.861,10.861,0,0,1,447.245,575.8V562.969A10.861,10.861,0,0,1,458.1,552.114h13.815V535.339h9.868v16.776H495.6a10.861,10.861,0,0,1,10.855,10.855Z" transform="translate(-185.965 -117.916)"/><path class="b" d="M347.915,384.139v3.381h-24.67v-3.381h-1.974v67.1h1.974v-2.056h24.67v2.056h1.974v-67.1Zm0,53.554h-24.67V399.013h24.67Z" transform="translate(-184.33 -116.713)"/><path class="b" d="M308.915,391.139v3.033h-24.67v-3.033h-1.974v60.2h1.974V449.49h24.67v1.844h1.974v-60.2Zm0,48.041h-24.67v-34.7h24.67Z" transform="translate(-183.816 -116.805)"/><path class="b" d="M269.915,384.139v3.182h-24.67v-3.182h-1.974V447.3h1.974V445.36h24.67V447.3h1.974V384.139Zm0,50.4h-24.67v-36.4h24.67Z" transform="translate(-183.301 -116.713)"/><path class="b" d="M553.915,264.139v3.381h-24.67v-3.381h-1.974v67.1h1.974v-2.056h24.67v2.056h1.974v-67.1Zm0,53.554h-24.67V279.013h24.67Z" transform="translate(-187.046 -115.13)"/><path class="b" d="M514.915,271.139v3.033h-24.67v-3.033h-1.974v60.2h1.974V329.49h24.67v1.844h1.974v-60.2Zm0,48.041h-24.67v-34.7h24.67Z" transform="translate(-186.532 -115.222)"/><path class="b" d="M475.915,264.139v3.182h-24.67v-3.182h-1.974V327.3h1.974V325.36h24.67V327.3h1.974V264.139Zm0,50.4h-24.67v-36.4h24.67Z" transform="translate(-186.018 -115.13)"/><path class="c" d="M348.507,365.211a30.968,30.968,0,0,1-25.854,0l-1.382-.6v104.5l1.283-.414a42.261,42.261,0,0,1,26.052,0l1.283.414v-104.5Zm-25.262,76.153V397h24.67v44.367Zm24.67,1.974v9.237h-24.67v-9.237Zm-24.67-48.314v-9.237h24.67v9.237Zm24.67,71.406a44.191,44.191,0,0,0-24.67,0V454.547h24.67Zm0-82.616h-24.67V367.6a32.646,32.646,0,0,0,24.67,0Z" transform="translate(-184.33 -116.455)"/><path class="c" d="M309.6,468.7l1.285.408v-104.5l-1.384.608a30.977,30.977,0,0,1-25.85,0l-1.384-.608v104.5l1.285-.408A42.258,42.258,0,0,1,309.6,468.7Zm-.689-16.127h-24.67v-9.237h24.67Zm0-57.547h-24.67v-9.237h24.67ZM284.244,367.6a32.623,32.623,0,0,0,24.67,0v16.217h-24.67Zm0,29.4h24.67v44.363h-24.67Zm0,57.547h24.67v11.884a44.044,44.044,0,0,0-24.67,0Z" transform="translate(-183.816 -116.455)"/><path class="c" d="M270.6,468.7l1.285.408v-104.5l-1.384.608a30.977,30.977,0,0,1-25.85,0l-1.384-.608v104.5l1.285-.408A42.258,42.258,0,0,1,270.6,468.7Zm-.689-16.127h-24.67v-9.237h24.67Zm0-57.547h-24.67v-9.237h24.67ZM245.244,367.6a32.623,32.623,0,0,0,24.67,0v16.217h-24.67Zm0,29.4h24.67v44.363h-24.67Zm0,57.547h24.67v11.884a44.044,44.044,0,0,0-24.67,0Z" transform="translate(-183.301 -116.455)"/><path class="c" d="M476.6,346.7l1.285.408v-104.5l-1.384.608a30.977,30.977,0,0,1-25.85,0l-1.384-.608v104.5l1.285-.408a42.272,42.272,0,0,1,26.047,0Zm-.689-16.127h-24.67v-9.237h24.67Zm0-57.547h-24.67v-9.237h24.67ZM451.244,245.6a32.622,32.622,0,0,0,24.67,0v16.217h-24.67Zm0,29.4h24.67v44.363h-24.67Zm0,57.547h24.67v11.884a44.056,44.056,0,0,0-24.67,0Z" transform="translate(-186.018 -114.846)"/><path class="c" d="M515.6,346.7l1.285.408v-104.5l-1.384.608a30.977,30.977,0,0,1-25.85,0l-1.384-.608v104.5l1.285-.408A42.272,42.272,0,0,1,515.6,346.7Zm-.689-16.127h-24.67v-9.237h24.67Zm0-57.547h-24.67v-9.237h24.67ZM490.244,245.6a32.622,32.622,0,0,0,24.67,0v16.217h-24.67Zm0,29.4h24.67v44.363h-24.67Zm0,57.547h24.67v11.884a44.056,44.056,0,0,0-24.67,0Z" transform="translate(-186.532 -114.846)"/><path class="c" d="M554.6,346.7l1.286.408v-104.5l-1.384.608a30.977,30.977,0,0,1-25.85,0l-1.384-.608v104.5l1.285-.408a42.271,42.271,0,0,1,26.047,0Zm-.688-16.127h-24.67v-9.237h24.67Zm0-57.547h-24.67v-9.237h24.67ZM529.244,245.6a32.622,32.622,0,0,0,24.67,0v16.217h-24.67Zm0,29.4h24.67v44.363h-24.67Zm0,69.432V332.547h24.67v11.884a44.056,44.056,0,0,0-24.67,0Z" transform="translate(-187.046 -114.846)"/></svg>